<svg width="64" height="64" viewBox="0 0 64 64" fill="none" xmlns="http://www.w3.org/2000/svg">
<g clip-path="url(#clip0_25_58)">
<path d="M4.964 58L16.376 32.8H19.94L31.388 58H27.608L17.42 34.816H18.86L8.672 58H4.964ZM9.824 51.7L10.796 48.82H24.98L26.024 51.7H9.824ZM46.1716 58.288C44.2276 58.288 42.4396 57.976 40.8076 57.352C39.1756 56.704 37.7596 55.804 36.5596 54.652C35.3596 53.476 34.4236 52.108 33.7516 50.548C33.0796 48.988 32.7436 47.272 32.7436 45.4C32.7436 43.528 33.0796 41.812 33.7516 40.252C34.4236 38.692 35.3596 37.336 36.5596 36.184C37.7836 35.008 39.2116 34.108 40.8436 33.484C42.4756 32.836 44.2756 32.512 46.2436 32.512C48.2356 32.512 50.0596 32.836 51.7156 33.484C53.3716 34.132 54.7756 35.104 55.9276 36.4L53.6956 38.632C52.6636 37.624 51.5356 36.892 50.3116 36.436C49.1116 35.956 47.8036 35.716 46.3876 35.716C44.9476 35.716 43.6036 35.956 42.3556 36.436C41.1316 36.916 40.0636 37.588 39.1516 38.452C38.2636 39.316 37.5676 40.348 37.0636 41.548C36.5836 42.724 36.3436 44.008 36.3436 45.4C36.3436 46.768 36.5836 48.052 37.0636 49.252C37.5676 50.428 38.2636 51.46 39.1516 52.348C40.0636 53.212 41.1316 53.884 42.3556 54.364C43.5796 54.844 44.9116 55.084 46.3516 55.084C47.6956 55.084 48.9796 54.88 50.2036 54.472C51.4516 54.04 52.6036 53.332 53.6596 52.348L55.7116 55.084C54.4636 56.14 52.9996 56.944 51.3196 57.496C49.6636 58.024 47.9476 58.288 46.1716 58.288ZM52.2556 54.616V45.256H55.7116V55.084L52.2556 54.616Z" fill="#84A59D"/>
<circle cx="18.5" cy="17.5" r="11.5" fill="#284B63"/>
<circle cx="45.5" cy="17.5" r="11.5" fill="#84A59D"/>
</g>
<defs>
<clipPath id="clip0_25_58">
<rect width="64" height="64" fill="white"/>
</clipPath>
</defs>
</svg>
